# xmcd
#
# Track frame offsets:
#	150
#	14744
#	32090
#	50498
#	72128
#	85468
#	98530
#	110198
#	126656
#	144489
#	158578
#	172354
#	186722
#	195952
#	212183
#	228083
#	241911
#	256157
#	266119
#	280138
#	295272
#	306296
#	322040
#	341528
#
# Disc length: 4786 seconds
#
# Revision: 0
# Processed by: cddbd v1.5.2PL0 Copyright (c) Steve Scherf et al.
# Submitted via: EZCDAudioConverter 2.4.0.1
#
DISCID=7512b018
DTITLE=Vários - Explosão Sertaneja 10
DYEAR=2004
DGENRE=Sertanejo
TTITLE0=Adalberto and Adriano - Quem mandou Acreditar
TTITLE1=Bruno and Marrone - Bar Solidão
TTITLE2=Chitãozinho and Xororó - Brincar de Ser Feliz
TTITLE3=Chrystian and Ralf - Desejo de Amar (Ao vivo)
TTITLE4=Cezar and Paulinho - A filha do Francês
TTITLE5=Sulino and Marrueiro - A Volta do Boiadeiro
TTITLE6=Cezar and Paulinho - Chute Pro Gooorrr!
TTITLE7=Daniel - A Gata do Milênio (Ao Vivo)
TTITLE8=Gian and Giovani - Olha Amor
TTITLE9=Guilherme and Santiago - Forró em Goias
TTITLE10=João Mineiro and Marciano - Aline
TTITLE11=Matogrosso and Mathias - Volte Amor
TTITLE12=Milionário and José Rico - Estrada da Vida
TTITLE13=Rionegro and Solimões - A Gente se Entrega
TTITLE14=Roberta Miranda - Amanhã (Mañana)
TTITLE15=Roberto and Meirinho - A Noite do Nosso Amor
TTITLE16=Breno Reis and Marco Viola - Prisioneiro
TTITLE17=Sergio Reis - Adeus Mariana
TTITLE18=Sérgio Reis - A Boiada
TTITLE19=Sérgio Reis - O Menino da Porteira
TTITLE20=Teodoro and Sampaio - Agarradinho
TTITLE21=Tião Carreiro and Pardinho - Cabelo Loiro
TTITLE22=Zezé Di Camargo and Luciano - A Queima Roupa
TTITLE23=Zezé Di Camargo and Luciano - A Mais Louca Paixão
EXTD=
EXTT0=
EXTT1=
EXTT2=
EXTT3=
EXTT4=
EXTT5=
EXTT6=
EXTT7=
EXTT8=
EXTT9=
EXTT10=
EXTT11=
EXTT12=
EXTT13=
EXTT14=
EXTT15=
EXTT16=
EXTT17=
EXTT18=
EXTT19=
EXTT20=
EXTT21=
EXTT22=
EXTT23=
PLAYORDER=
